<svg id="visual" viewBox="0 0 900 600" width="900" height="600" xmlns="http://www.w3.org/2000/svg" xmlns:xlink="http://www.w3.org/1999/xlink" version="1.1"><g stroke-width="1" stroke-linejoin="bevel"><path d="M493 272L486 199L376 222Z" fill="#009277" stroke="#009277"></path><path d="M376 222L371 293L493 272Z" fill="#004e5d" stroke="#004e5d"></path><path d="M263 207L337 319L371 293Z" fill="#009277" stroke="#009277"></path><path d="M371 293L432 375L493 272Z" fill="#00a370" stroke="#00a370"></path><path d="M337 319L432 375L371 293Z" fill="#004e5d" stroke="#004e5d"></path><path d="M486 199L374 112L376 222Z" fill="#005f6a" stroke="#005f6a"></path><path d="M469 102L374 112L486 199Z" fill="#001220" stroke="#001220"></path><path d="M376 222L263 207L371 293Z" fill="#001220" stroke="#001220"></path><path d="M493 272L600 183L486 199Z" fill="#001220" stroke="#001220"></path><path d="M486 199L591 125L469 102Z" fill="#032f3f" stroke="#032f3f"></path><path d="M633 285L600 183L493 272Z" fill="#032f3f" stroke="#032f3f"></path><path d="M374 112L263 207L376 222Z" fill="#007075" stroke="#007075"></path><path d="M263 207L297 363L337 319Z" fill="#008179" stroke="#008179"></path><path d="M337 319L297 363L432 375Z" fill="#009277" stroke="#009277"></path><path d="M600 183L591 125L486 199Z" fill="#33b263" stroke="#33b263"></path><path d="M480 487L480 431L369 490Z" fill="#005f6a" stroke="#005f6a"></path><path d="M432 375L480 431L493 272Z" fill="#005f6a" stroke="#005f6a"></path><path d="M578 431L633 285L493 272Z" fill="#008179" stroke="#008179"></path><path d="M600 183L699 210L591 125Z" fill="#007075" stroke="#007075"></path><path d="M270 0L267 99L374 112Z" fill="#001220" stroke="#001220"></path><path d="M374 112L267 99L263 207Z" fill="#001220" stroke="#001220"></path><path d="M480 431L578 431L493 272Z" fill="#33b263" stroke="#33b263"></path><path d="M512 0L437 0L469 102Z" fill="#042030" stroke="#042030"></path><path d="M469 102L437 0L374 112Z" fill="#009277" stroke="#009277"></path><path d="M369 490L480 431L432 375Z" fill="#007075" stroke="#007075"></path><path d="M480 431L480 487L578 431Z" fill="#009277" stroke="#009277"></path><path d="M591 125L512 0L469 102Z" fill="#003e4f" stroke="#003e4f"></path><path d="M297 363L369 490L432 375Z" fill="#009277" stroke="#009277"></path><path d="M728 266L699 210L633 285Z" fill="#004e5d" stroke="#004e5d"></path><path d="M633 285L699 210L600 183Z" fill="#007075" stroke="#007075"></path><path d="M591 125L598 0L512 0Z" fill="#001220" stroke="#001220"></path><path d="M184 80L169 237L263 207Z" fill="#005f6a" stroke="#005f6a"></path><path d="M263 207L175 333L297 363Z" fill="#33b263" stroke="#33b263"></path><path d="M297 363L334 522L369 490Z" fill="#008179" stroke="#008179"></path><path d="M169 237L175 333L263 207Z" fill="#005f6a" stroke="#005f6a"></path><path d="M739 121L598 0L591 125Z" fill="#003e4f" stroke="#003e4f"></path><path d="M708 431L728 266L633 285Z" fill="#042030" stroke="#042030"></path><path d="M699 210L739 121L591 125Z" fill="#001220" stroke="#001220"></path><path d="M437 0L270 0L374 112Z" fill="#042030" stroke="#042030"></path><path d="M267 99L184 80L263 207Z" fill="#004e5d" stroke="#004e5d"></path><path d="M480 487L590 492L578 431Z" fill="#042030" stroke="#042030"></path><path d="M578 431L708 431L633 285Z" fill="#007075" stroke="#007075"></path><path d="M531 600L590 492L480 487Z" fill="#008179" stroke="#008179"></path><path d="M175 333L200 420L297 363Z" fill="#003e4f" stroke="#003e4f"></path><path d="M200 420L334 522L297 363Z" fill="#007075" stroke="#007075"></path><path d="M369 490L410 600L480 487Z" fill="#007075" stroke="#007075"></path><path d="M236 0L184 80L267 99Z" fill="#33b263" stroke="#33b263"></path><path d="M270 0L236 0L267 99Z" fill="#009277" stroke="#009277"></path><path d="M775 178L739 121L699 210Z" fill="#032f3f" stroke="#032f3f"></path><path d="M590 492L708 431L578 431Z" fill="#33b263" stroke="#33b263"></path><path d="M708 431L773 265L728 266Z" fill="#042030" stroke="#042030"></path><path d="M728 266L775 178L699 210Z" fill="#00a370" stroke="#00a370"></path><path d="M81 374L171 461L200 420Z" fill="#007075" stroke="#007075"></path><path d="M169 237L101 261L175 333Z" fill="#001220" stroke="#001220"></path><path d="M105 171L101 261L169 237Z" fill="#032f3f" stroke="#032f3f"></path><path d="M84 117L105 171L184 80Z" fill="#032f3f" stroke="#032f3f"></path><path d="M184 80L105 171L169 237Z" fill="#009277" stroke="#009277"></path><path d="M773 265L775 178L728 266Z" fill="#042030" stroke="#042030"></path><path d="M200 420L171 461L334 522Z" fill="#001220" stroke="#001220"></path><path d="M81 374L200 420L175 333Z" fill="#032f3f" stroke="#032f3f"></path><path d="M335 600L410 600L334 522Z" fill="#001220" stroke="#001220"></path><path d="M334 522L410 600L369 490Z" fill="#009277" stroke="#009277"></path><path d="M590 492L676 538L708 431Z" fill="#00a370" stroke="#00a370"></path><path d="M410 600L531 600L480 487Z" fill="#00a370" stroke="#00a370"></path><path d="M209 600L335 600L334 522Z" fill="#004e5d" stroke="#004e5d"></path><path d="M102 0L84 117L184 80Z" fill="#003e4f" stroke="#003e4f"></path><path d="M0 177L0 286L101 261Z" fill="#008179" stroke="#008179"></path><path d="M0 286L81 374L101 261Z" fill="#004e5d" stroke="#004e5d"></path><path d="M101 261L81 374L175 333Z" fill="#008179" stroke="#008179"></path><path d="M602 600L676 538L590 492Z" fill="#009277" stroke="#009277"></path><path d="M708 431L837 428L773 265Z" fill="#008179" stroke="#008179"></path><path d="M817 0L738 0L739 121Z" fill="#001220" stroke="#001220"></path><path d="M739 121L738 0L598 0Z" fill="#003e4f" stroke="#003e4f"></path><path d="M531 600L602 600L590 492Z" fill="#003e4f" stroke="#003e4f"></path><path d="M775 178L828 117L739 121Z" fill="#008179" stroke="#008179"></path><path d="M900 162L828 117L775 178Z" fill="#33b263" stroke="#33b263"></path><path d="M900 266L775 178L773 265Z" fill="#003e4f" stroke="#003e4f"></path><path d="M236 0L102 0L184 80Z" fill="#032f3f" stroke="#032f3f"></path><path d="M118 600L209 600L171 461Z" fill="#042030" stroke="#042030"></path><path d="M171 461L209 600L334 522Z" fill="#00a370" stroke="#00a370"></path><path d="M0 177L101 261L105 171Z" fill="#007075" stroke="#007075"></path><path d="M81 374L62 528L171 461Z" fill="#042030" stroke="#042030"></path><path d="M0 177L105 171L84 117Z" fill="#007075" stroke="#007075"></path><path d="M785 537L708 431L676 538Z" fill="#009277" stroke="#009277"></path><path d="M785 537L837 428L708 431Z" fill="#032f3f" stroke="#032f3f"></path><path d="M0 122L0 177L84 117Z" fill="#009277" stroke="#009277"></path><path d="M602 600L699 600L676 538Z" fill="#007075" stroke="#007075"></path><path d="M828 117L817 0L739 121Z" fill="#001220" stroke="#001220"></path><path d="M0 0L0 122L84 117Z" fill="#004e5d" stroke="#004e5d"></path><path d="M0 286L0 371L81 374Z" fill="#005f6a" stroke="#005f6a"></path><path d="M699 600L785 537L676 538Z" fill="#00a370" stroke="#00a370"></path><path d="M900 379L900 266L773 265Z" fill="#007075" stroke="#007075"></path><path d="M828 117L900 99L817 0Z" fill="#032f3f" stroke="#032f3f"></path><path d="M900 266L900 162L775 178Z" fill="#003e4f" stroke="#003e4f"></path><path d="M0 371L62 528L81 374Z" fill="#33b263" stroke="#33b263"></path><path d="M62 528L118 600L171 461Z" fill="#004e5d" stroke="#004e5d"></path><path d="M900 473L900 379L837 428Z" fill="#003e4f" stroke="#003e4f"></path><path d="M837 428L900 379L773 265Z" fill="#004e5d" stroke="#004e5d"></path><path d="M900 162L900 99L828 117Z" fill="#001220" stroke="#001220"></path><path d="M699 600L774 600L785 537Z" fill="#007075" stroke="#007075"></path><path d="M785 537L900 473L837 428Z" fill="#009277" stroke="#009277"></path><path d="M102 0L0 0L84 117Z" fill="#042030" stroke="#042030"></path><path d="M900 600L900 473L785 537Z" fill="#004e5d" stroke="#004e5d"></path><path d="M0 371L0 523L62 528Z" fill="#005f6a" stroke="#005f6a"></path><path d="M62 528L0 600L118 600Z" fill="#042030" stroke="#042030"></path><path d="M900 99L900 0L817 0Z" fill="#042030" stroke="#042030"></path><path d="M0 523L0 600L62 528Z" fill="#005f6a" stroke="#005f6a"></path><path d="M774 600L900 600L785 537Z" fill="#032f3f" stroke="#032f3f"></path></g></svg>