<svg width="1440" height="429" viewBox="0 0 1440 429" fill="none" xmlns="http://www.w3.org/2000/svg">
<path d="M1440 429L1405.6 385.884C1371.2 342.769 1302.4 256.538 1233.92 213.422C1165.28 170.307 1097.12 170.307 1028.48 195.529C960 220.536 891.2 270.981 822.72 310.432C754.08 349.883 685.92 378.77 617.28 365.405C548.8 352.039 480 296.851 411.52 265.592C342.88 234.333 274.72 227.004 206.08 240.369C137.6 253.735 68.8 287.365 34.4 304.396L-2.14577e-05 321.211V1.90735e-06H34.4C68.8 1.90735e-06 137.6 1.90735e-06 206.08 1.90735e-06C274.72 1.90735e-06 342.88 1.90735e-06 411.52 1.90735e-06C480 1.90735e-06 548.8 1.90735e-06 617.28 1.90735e-06C685.92 1.90735e-06 754.08 1.90735e-06 822.72 1.90735e-06C891.2 1.90735e-06 960 1.90735e-06 1028.48 1.90735e-06C1097.12 1.90735e-06 1165.28 1.90735e-06 1233.92 1.90735e-06C1302.4 1.90735e-06 1371.2 1.90735e-06 1405.6 1.90735e-06H1440V429Z" fill="#33B263"/>
</svg>
