<svg id="visual" viewBox="0 0 500 500" width="500" height="500" xmlns="http://www.w3.org/2000/svg" xmlns:xlink="http://www.w3.org/1999/xlink" version="1.1"><rect x="0" y="0" width="500" height="500" fill="#001220"></rect><defs><linearGradient id="grad1_0" x1="0%" y1="100%" x2="100%" y2="0%"><stop offset="30%" stop-color="#33b263" stop-opacity="1"></stop><stop offset="70%" stop-color="#33b263" stop-opacity="1"></stop></linearGradient></defs><defs><linearGradient id="grad1_1" x1="0%" y1="100%" x2="100%" y2="0%"><stop offset="30%" stop-color="#33b263" stop-opacity="1"></stop><stop offset="70%" stop-color="#001220" stop-opacity="1"></stop></linearGradient></defs><defs><linearGradient id="grad2_0" x1="0%" y1="100%" x2="100%" y2="0%"><stop offset="30%" stop-color="#33b263" stop-opacity="1"></stop><stop offset="70%" stop-color="#33b263" stop-opacity="1"></stop></linearGradient></defs><defs><linearGradient id="grad2_1" x1="0%" y1="100%" x2="100%" y2="0%"><stop offset="30%" stop-color="#001220" stop-opacity="1"></stop><stop offset="70%" stop-color="#33b263" stop-opacity="1"></stop></linearGradient></defs><g transform="translate(500, 500)"><path d="M-318.2 0C-300.1 -37.4 -282 -74.9 -265.2 -109.8C-248.3 -144.8 -232.6 -177.2 -210 -210C-187.4 -242.8 -157.9 -275.9 -121.8 -294C-85.6 -312.1 -42.8 -315.1 0 -318.2L0 0Z" fill="#005f6a"></path><path d="M-159.1 0C-150.1 -18.7 -141 -37.4 -132.6 -54.9C-124.1 -72.4 -116.3 -88.6 -105 -105C-93.7 -121.4 -79 -137.9 -60.9 -147C-42.8 -156 -21.4 -157.6 0 -159.1L0 0Z" fill="#33b263"></path></g><g transform="translate(0, 0)"><path d="M318.2 0C284.9 29.4 251.5 58.8 241.1 99.9C230.7 141 243.2 193.7 225 225C206.8 256.3 157.8 266.1 115.2 278.1C72.6 290 36.3 304.1 0 318.2L0 0Z" fill="#005f6a"></path><path d="M159.1 0C142.4 14.7 125.8 29.4 120.6 49.9C115.4 70.5 121.6 96.9 112.5 112.5C103.4 128.1 78.9 133.1 57.6 139C36.3 145 18.1 152.1 0 159.1L0 0Z" fill="#33b263"></path></g></svg>