<svg id="visual" viewBox="0 0 1136 1549" width="1136" height="1549" xmlns="http://www.w3.org/2000/svg" xmlns:xlink="http://www.w3.org/1999/xlink" version="1.1"><rect width="1136" height="1549" fill="#044A1E"></rect><g><g transform="translate(1113 843)"><path d="M156.3 -42.5C181.9 28 167.7 119.8 114.2 159.2C60.6 198.6 -32.5 185.7 -97.8 137.5C-163.1 89.3 -200.7 6 -179.8 -58.1C-158.9 -122.2 -79.5 -167 -7.1 -164.7C65.3 -162.4 130.6 -113 156.3 -42.5Z" stroke="#33B263" fill="none" stroke-width="20"></path></g><g transform="translate(618 1445)"><path d="M163.6 -53.8C182.9 6.2 149.3 82.8 91 125C32.8 167.3 -50.2 175.3 -101.8 138.2C-153.4 101.2 -173.6 19.1 -151.4 -44.9C-129.2 -109 -64.6 -154.9 3.8 -156.2C72.1 -157.4 144.3 -113.9 163.6 -53.8Z" stroke="#33B263" fill="none" stroke-width="20"></path></g><g transform="translate(946 218)"><path d="M152.3 -47.5C174 17.2 152 98.1 99.3 136.4C46.5 174.6 -37 170.3 -92 129.6C-146.9 89 -173.3 12.1 -153.2 -50.5C-133.1 -113.1 -66.5 -161.3 -0.6 -161.1C65.3 -160.9 130.7 -112.3 152.3 -47.5Z" stroke="#33B263" fill="none" stroke-width="20"></path></g><g transform="translate(61 806)"><path d="M156.2 -49.1C176.4 11.4 148.8 89.1 91.1 132.7C33.5 176.3 -54.2 185.8 -114.1 145.1C-174.1 104.4 -206.3 13.4 -182.7 -51.9C-159 -117.2 -79.5 -156.8 -5.8 -154.9C68 -153.1 136 -109.7 156.2 -49.1Z" stroke="#33B263" fill="none" stroke-width="20"></path></g><g transform="translate(73 55)"><path d="M108.7 -33.9C125.3 15.8 112.5 76.5 74.3 104.9C36.1 133.2 -27.4 129.2 -65.6 99.3C-103.8 69.4 -116.7 13.7 -101.6 -34.1C-86.4 -81.8 -43.2 -121.4 1.4 -121.9C46 -122.4 92.1 -83.6 108.7 -33.9Z" stroke="#33B263" fill="none" stroke-width="20"></path></g><g transform="translate(85 1396)"><path d="M98.2 -38.8C110.5 6.1 92.3 54.1 55.7 82C19.1 109.8 -36 117.5 -69.1 93.8C-102.2 70.1 -113.3 14.8 -98.1 -34C-82.9 -82.9 -41.5 -125.3 0.7 -125.6C42.9 -125.8 85.8 -83.8 98.2 -38.8Z" stroke="#33B263" fill="none" stroke-width="20"></path></g><g transform="translate(591 689)"><path d="M124.7 -38C141.1 10 119.8 72.8 78.2 101.6C36.5 130.5 -25.4 125.4 -69.4 93.8C-113.5 62.2 -139.5 4.2 -125 -41.3C-110.4 -86.7 -55.2 -119.7 -0.5 -119.5C54.1 -119.3 108.3 -86.1 124.7 -38Z" stroke="#33B263" fill="none" stroke-width="20"></path></g></g></svg>