<svg id="visual" viewBox="0 0 900 600" width="900" height="600" xmlns="http://www.w3.org/2000/svg" xmlns:xlink="http://www.w3.org/1999/xlink" version="1.1"><rect width="900" height="600" fill="#044A1E"></rect><g><g transform="translate(327 446)"><path d="M103.2 -35.3C114.6 1.5 91.5 47.8 54.9 74.1C18.2 100.3 -31.9 106.6 -65.3 83.7C-98.8 60.9 -115.6 8.9 -101.9 -31C-88.2 -70.9 -44.1 -98.8 0.9 -99.1C45.9 -99.4 91.8 -72.1 103.2 -35.3Z" stroke="#33B263" fill="none" stroke-width="20"></path></g><g transform="translate(804 414)"><path d="M61.2 -22.5C68.1 1.5 54.9 29.4 32.8 45.5C10.8 61.6 -20.1 65.9 -39.3 52.3C-58.5 38.8 -66.1 7.4 -57.6 -18.7C-49.1 -44.9 -24.6 -65.8 1.3 -66.2C27.1 -66.6 54.3 -46.5 61.2 -22.5Z" stroke="#33B263" fill="none" stroke-width="20"></path></g><g transform="translate(262 85)"><path d="M59.5 -18.6C68.2 7.5 60.3 39.8 40.8 53.2C21.4 66.7 -9.6 61.2 -32 44.8C-54.3 28.3 -68.1 0.9 -61.4 -22.5C-54.6 -45.9 -27.3 -65.3 -1 -64.9C25.4 -64.6 50.8 -44.7 59.5 -18.6Z" stroke="#33B263" fill="none" stroke-width="20"></path></g><g transform="translate(609 124)"><path d="M78.6 -26.1C89.1 6.5 75.8 46.3 46.8 68.2C17.9 90.2 -26.8 94.3 -54.6 74.3C-82.4 54.3 -93.4 10.2 -81.4 -24.5C-69.5 -59.2 -34.8 -84.6 -0.3 -84.5C34.1 -84.4 68.2 -58.8 78.6 -26.1Z" stroke="#33B263" fill="none" stroke-width="20"></path></g><g transform="translate(1 529)"><path d="M64.2 -23.6C71.2 0.8 56.7 29.4 35.6 43.4C14.4 57.5 -13.3 57 -33.2 43.1C-53.2 29.2 -65.3 2 -58.5 -22.1C-51.6 -46.2 -25.8 -67.1 1.4 -67.6C28.6 -68 57.2 -48 64.2 -23.6Z" stroke="#33B263" fill="none" stroke-width="20"></path></g></g></svg>